<?xml version="1.0" encoding="UTF-8"?>
<svg version="1.1" xmlns="http://www.w3.org/2000/svg" xmlns:xlink="http://www.w3.org/1999/xlink">
<defs>

</defs>
<symbol id="i-logo" viewBox="0 0 32 32" xmlns="http://www.w3.org/2000/svg"><g fill="none" fill-rule="evenodd"><path fill="transparent" d="M0 0h32v32H0z"/><path d="M2.001 13.274c-.032-.883.638-1.627 1.497-1.66.413-.015.814.14 1.115.43.302.291.478.693.492 1.117.067 1.614.197 3.224.39 4.828.166 1.379.338 2.373.69 3.207.35.823.912 1.6 1.872 2.585 1.103 1.133 2.877 2.669 4.678 3.76 1.194.725 2.364 1.238 3.25 1.238.883 0 2.052-.512 3.247-1.237 1.802-1.092 3.576-2.629 4.68-3.762.959-.985 1.522-1.761 1.87-2.584.352-.834.525-1.828.69-3.206.154-1.268.268-2.54.342-3.816.068-1.208.096-2.384.074-3.467 0-.212-.04-.421-.12-.617a.855.855 0 00-.344-.398c-.185-.11-.434-.167-.73-.16-.37.008-.794.115-1.258.333-.595.28-1.27.648-1.945 1.041-.778.456-1.544.935-2.296 1.436a1.51 1.51 0 01-1.172.218 1.551 1.551 0 01-.976-.702 1.64 1.64 0 01.468-2.22A48.739 48.739 0 0120.97 8.1c.71-.416 1.435-.8 2.176-1.154.86-.406 1.705-.606 2.487-.623.867-.019 1.662.187 2.337.588a3.985 3.985 0 011.622 1.845c.246.557.386 1.19.4 1.888a48.577 48.577 0 01-.074 3.706 64.26 64.26 0 01-.354 4.03c-.199 1.656-.425 2.894-.934 4.1-.515 1.218-1.276 2.292-2.528 3.578-1.24 1.273-3.245 3.007-5.3 4.252-1.632.99-3.331 1.69-4.818 1.69-1.487 0-3.186-.7-4.82-1.69-2.053-1.245-4.059-2.979-5.298-4.252-1.253-1.286-2.014-2.36-2.528-3.579-.51-1.205-.736-2.443-.935-4.1a59.124 59.124 0 01-.402-5.105zm15.497 10.324a1.63 1.63 0 01-.455 1.138 1.54 1.54 0 01-1.103.473 1.54 1.54 0 01-1.104-.473 1.63 1.63 0 01-.454-1.138v-5.126c0-1.58-.139-2.58-.56-3.277-.43-.71-1.255-1.295-2.617-2.033-.608-.33-1.364-.698-2.11-1.063-3.136-1.531-6.121-2.99-5.967-5.795.098-1.76 2.044-3.25 4.527-4.316C10.373.822 13.903 0 15.82 0c1.174 0 2.57.294 3.974.74a29.49 29.49 0 014.603 1.933c.56.295.895.907.849 1.552a1.603 1.603 0 01-1.061 1.408c-.392.133-.819.1-1.187-.091A26.331 26.331 0 0018.88 3.81c-1.118-.355-2.199-.589-3.061-.589-1.587 0-4.597.718-6.971 1.737-1.466.63-2.6 1.226-2.616 1.522-.035.649 2.026 1.656 4.19 2.712a56.67 56.67 0 012.22 1.126c1.864 1.01 3.048 1.902 3.82 3.178.78 1.288 1.036 2.781 1.036 4.976v5.126zM29.86 0c.257 0 .497.05.723.147a1.904 1.904 0 01.99.99c.098.226.147.466.147.723 0 .257-.05.497-.147.722a1.904 1.904 0 01-.99.99 1.784 1.784 0 01-.723.148c-.257 0-.497-.05-.723-.148a1.904 1.904 0 01-.99-.99A1.784 1.784 0 0128 1.86c0-.257.05-.497.148-.723a1.904 1.904 0 01.99-.99C29.363.05 29.602 0 29.86 0zm0 .45c-.187 0-.362.037-.525.112a1.382 1.382 0 00-.72.75c-.07.172-.105.355-.105.548a1.436 1.436 0 00.395.995c.123.127.267.227.43.303.163.075.338.112.525.112s.362-.037.525-.112a1.382 1.382 0 00.72-.75c.07-.172.105-.355.105-.548a1.436 1.436 0 00-.395-.995 1.424 1.424 0 00-.43-.302A1.243 1.243 0 0029.86.45zm-.025.415l.133.004.042.003.045.003c.093.007.185.03.275.07.09.04.168.102.235.188.067.085.1.205.1.362 0 .1-.013.182-.04.247a.481.481 0 01-.102.16.421.421 0 01-.145.096.669.669 0 01-.168.042l.5.775h-.525l-.445-.75h-.085v.75h-.51V.865h.69zm.02.39h-.205v.42h.205l.098-.005.05-.009.047-.016a.18.18 0 00.075-.063.2.2 0 00.03-.117.2.2 0 00-.03-.118.18.18 0 00-.075-.062.311.311 0 00-.098-.025l-.097-.005z" fill="currentColor" fill-rule="nonzero"/></g></symbol>
<symbol id="i-wowcube-logo" viewBox="0 0 34 38" fill="none" xmlns="http://www.w3.org/2000/svg"><path d="M6.852 2.362c-3.01 1.266-5.367 3.033-5.485 5.124-.187 3.331 3.43 5.063 7.23 6.882.904.432 1.82.871 2.556 1.262 1.65.875 2.65 1.572 3.17 2.414.511.828.68 2.015.68 3.891v6.682c0 1.056.844 1.912 1.887 1.912 1.043 0 1.888-.856 1.888-1.912v-6.682c0-2.606-.31-4.379-1.255-5.908-.936-1.515-2.37-2.575-4.63-3.774a70.08 70.08 0 00-2.689-1.337c-2.622-1.255-5.12-2.45-5.076-3.22.02-.352 1.393-1.06 3.17-1.808 2.876-1.21 6.523-2.063 8.444-2.063 1.046 0 2.357.278 3.71.699A32.298 32.298 0 0125.44 6.58c.929.475 2.061.097 2.53-.844a1.92 1.92 0 00-.834-2.563A36.057 36.057 0 0021.558.878C19.858.35 18.167 0 16.742 0c-2.32 0-6.597.976-9.89 2.362zm21.783 5.147c-.948.02-1.97.257-3.014.74-.89.41-1.791.888-2.636 1.37a59.111 59.111 0 00-2.975 1.825 1.924 1.924 0 00-.567 2.637 1.87 1.87 0 002.603.576 55.525 55.525 0 012.782-1.706 32.129 32.129 0 012.357-1.236c.56-.26 1.076-.386 1.524-.396.359-.008.66.059.884.19.18.104.323.264.416.473.09.197.14.442.146.733a53.543 53.543 0 01-.09 4.117 70.988 70.988 0 01-.413 4.53c-.2 1.637-.41 2.817-.838 3.808-.42.977-1.103 1.9-2.266 3.07-1.336 1.345-3.486 3.17-5.668 4.466-1.448.86-2.865 1.469-3.937 1.469-1.072 0-2.488-.609-3.936-1.469-2.182-1.296-4.332-3.121-5.669-4.467-1.162-1.17-1.845-2.092-2.266-3.069-.427-.99-.637-2.171-.837-3.808a72.129 72.129 0 01-.473-5.733 1.892 1.892 0 00-1.947-1.838c-1.038.037-1.85.92-1.814 1.973a69.113 69.113 0 00.488 6.062c.24 1.966.515 3.437 1.132 4.869.624 1.446 1.545 2.722 3.063 4.249 1.502 1.512 3.932 3.57 6.42 5.05C13.083 37.168 15.142 38 16.944 38c1.801 0 3.86-.831 5.838-2.007 2.49-1.478 4.919-3.537 6.42-5.049 1.518-1.527 2.44-2.803 3.063-4.25.617-1.431.892-2.901 1.133-4.868.186-1.516.334-3.138.428-4.785.085-1.483.12-2.972.09-4.4a5.726 5.726 0 00-.485-2.243 4.762 4.762 0 00-1.965-2.192c-.783-.455-1.7-.699-2.699-.699-.044 0-.088 0-.132.002z" fill="currentColor"/></symbol>
</svg>